<?xml version="1.0" encoding="utf-8"?>
<svg xmlns="http://www.w3.org/2000/svg" xmlns:xlink="http://www.w3.org/1999/xlink" x="0px" y="0px" viewBox="0 0 241 70" enable-background="new 0 0 241 70" xml:space="preserve">
	<g>
		<path fill="#FFF" d="M47.7358398,18.5478516c1.8237305,2.0878906,2.7363281,4.9086914,2.7363281,8.4599609v27.5761719
			h-9.2163086V28.4477539c0-4.0791016-1.3925781-6.1196289-4.1757813-6.1196289
			c-1.4882813,0-2.7719727,0.4677734-3.8520508,1.4038086s-2.1958008,2.3881836-3.3481445,4.355957v26.4960938h-9.2158203V28.4477539
			c0-4.0791016-1.3925781-6.1196289-4.1757813-6.1196289c-1.5371094,0-2.8442383,0.4677734-3.9243164,1.4038086
			s-2.1958008,2.3881836-3.3481445,4.355957v26.4960938H0V16.4960938h7.9921875l0.7197266,4.9677734
			c2.8803711-4.0317383,6.5522461-6.0478516,11.0161133-6.0478516c2.2075195,0,4.1152344,0.5649414,5.7241211,1.6918945
			c1.6074219,1.128418,2.7719727,2.7001953,3.4916992,4.7163086c1.5356445-2.0634766,3.2280273-3.6474609,5.0761719-4.7524414
			c1.847168-1.1035156,3.9711914-1.6557617,6.3720703-1.6557617C43.4633789,15.4160156,45.9111328,16.4599609,47.7358398,18.5478516z"/>
		<path fill="#FFF" d="M77.3999023,54.4482422c-1.5366211,4.7036133-3.8642578,8.3632813-6.9838867,10.9799805
			C67.2949219,68.0439453,63.0234375,69.5683594,57.5996094,70l-0.9355469-6.6958008
			c2.4951172-0.3847656,4.5-0.9248047,6.0117188-1.6201172c1.512207-0.6962891,2.7236328-1.6201172,3.6362305-2.7719727
			c0.9111328-1.1518555,1.7514648-2.6884766,2.5200195-4.6079102h-3.1679688L53.5678711,16.2163086h9.7919922l8.2797852,31.9677734
			l8.6401367-31.9677734h9.5039063L77.3999023,54.4482422z"/>
		<path fill="#FFF" d="M126.5390625,31.9038086c2.0878906,1.824707,3.1323242,4.6083984,3.1323242,8.3520508
			c0,5.184082-1.8251953,8.8686523-5.472168,11.0522461c-3.6484375,2.1845703-8.7602539,3.2758789-15.3359375,3.2758789H93.887207
			V4.8320313h13.0317383c13.7275391,0,20.5922852,4.2241211,20.5922852,12.671875
			c0,2.9282227-0.8886719,5.3168945-2.6640625,7.1640625c-1.7763672,1.8486328-3.9599609,3.0366211-6.5517578,3.5639648
			C121.7026367,28.8564453,124.4511719,30.0805664,126.5390625,31.9038086z M103.3911133,11.815918v13.4638672h5.8320313
			c2.6391602,0,4.7270508-0.5869141,6.2641602-1.7636719c1.5356445-1.1757813,2.3037109-2.9160156,2.3037109-5.2202148
			c0-2.3994141-0.8041992-4.0791016-2.4116211-5.0400391c-1.6088867-0.9594727-4.1166992-1.4399414-7.5244141-1.4399414H103.3911133z
			 M116.9633789,45.8720703c1.847168-1.0551758,2.7719727-3.0478516,2.7719727-5.9760742
			c0-2.831543-0.8764648-4.8710938-2.628418-6.1201172c-1.7524414-1.2475586-4.1396484-1.8720703-7.1635742-1.8720703h-6.5522461
			v15.5522461h5.5439453C112.4384766,47.4560547,115.1147461,46.9282227,116.9633789,45.8720703z"/>
		<path fill="#FFF" d="M138.0585938,52.8837891c-1.6557617-1.703125-2.4838867-4.1152344-2.4838867-7.2358398V1.0078125
			L144.7905273,0v45.3598633c0,1.7763672,0.7202148,2.6640625,2.1601563,2.6640625
			c0.7197266,0,1.4399414-0.1191406,2.1601563-0.3598633l1.9438477,6.4799805
			c-1.9204102,0.8637695-3.9599609,1.2958984-6.1201172,1.2958984
			C142.0063477,55.4399414,139.7148438,54.5869141,138.0585938,52.8837891z"/>
		<path fill="#FFF" d="M183.7070313,20.5556641c3.1435547,3.5766602,4.7163086,8.4848633,4.7163086,14.7241211
			c0,3.9848633-0.7202148,7.5004883-2.1601563,10.5478516c-1.4399414,3.0488281-3.5043945,5.4125977-6.1918945,7.0922852
			c-2.6889648,1.6796875-5.8803711,2.5200195-9.5761719,2.5200195c-5.6157227,0-10.0078125-1.7875977-13.1757813-5.3642578
			c-3.1679688-3.5751953-4.7519531-8.5068359-4.7519531-14.7958984c0-3.9833984,0.7197266-7.487793,2.159668-10.5117188
			c1.4399414-3.0244141,3.515625-5.3754883,6.2280273-7.0561523c2.7114258-1.6796875,5.9155273-2.5200195,9.6123047-2.5200195
			C176.1831055,15.1918945,180.5629883,16.9804688,183.7070313,20.5556641z M162.2871094,35.2797852
			c0,4.5126953,0.684082,7.8369141,2.0522461,9.972168c1.3676758,2.1362305,3.4199219,3.2041016,6.1557617,3.2041016
			s4.7880859-1.0800781,6.15625-3.2402344c1.3676758-2.1601563,2.0517578-5.472168,2.0517578-9.9360352
			s-0.684082-7.7636719-2.0517578-9.8999023c-1.3681641-2.1352539-3.3964844-3.2041016-6.0839844-3.2041016
			C165.046875,22.1757813,162.2871094,26.5444336,162.2871094,35.2797852z"/>
		<path fill="#FFF" d="M228.3833008,18.2324219c-2.4482422,0.8637695-6.1201172,1.2958984-11.0161133,1.2958984
			c2.3510742,1.0561523,4.0917969,2.3647461,5.2202148,3.9238281c1.1269531,1.5605469,1.6918945,3.5166016,1.6918945,5.8681641
			c0,2.4960938-0.6118164,4.7045898-1.8359375,6.6240234c-1.2241211,1.9204102-3.0004883,3.4321289-5.328125,4.5356445
			c-2.3286133,1.1049805-5.0522461,1.65625-8.171875,1.65625c-1.7280273,0-3.2402344-0.1914063-4.5361328-0.5761719
			c-1.0561523,0.7202148-1.5839844,1.65625-1.5839844,2.8081055c0,1.7763672,1.5356445,2.6640625,4.6079102,2.6640625h5.8320313
			c2.7832031,0,5.2202148,0.456543,7.3081055,1.3681641c2.0878906,0.9121094,3.7080078,2.1958008,4.8598633,3.8520508
			c1.1518555,1.6557617,1.7280273,3.515625,1.7280273,5.5795898c0,3.8398438-1.6323242,6.8276367-4.8959961,8.9643555
			C218.9985352,68.9316406,214.2949219,70,208.1513672,70c-4.4169922,0-7.8842773-0.456543-10.4042969-1.3676758
			c-2.5200195-0.9125977-4.3085938-2.2319336-5.3637695-3.9599609c-1.0566406-1.7280273-1.5839844-3.9365234-1.5839844-6.6240234
			h8.2797852c0,1.3432617,0.2519531,2.3994141,0.7563477,3.1679688c0.5039063,0.7670898,1.4150391,1.3432617,2.7358398,1.7280273
			c1.3193359,0.3833008,3.2275391,0.5756836,5.7241211,0.5756836c3.5029297,0,5.9755859-0.4316406,7.4160156-1.2958984
			c1.4399414-0.8637695,2.159668-2.112793,2.159668-3.7441406c0-1.4399414-0.5522461-2.5556641-1.6557617-3.3476563
			c-1.1049805-0.7919922-2.7124023-1.1879883-4.8242188-1.1879883h-5.7597656c-3.6000977,0-6.3125-0.6953125-8.1362305-2.0883789
			c-1.824707-1.3916016-2.7358398-3.1430664-2.7358398-5.2558594c0-1.3432617,0.3959961-2.6391602,1.1879883-3.8876953
			c0.7919922-1.2480469,1.8833008-2.3041992,3.2758789-3.1679688c-2.3037109-1.199707-3.9960938-2.675293-5.0756836-4.4282227
			c-1.0800781-1.7514648-1.6201172-3.8520508-1.6201172-6.2998047c0-2.7363281,0.6713867-5.1357422,2.0161133-7.2001953
			c1.3432617-2.0634766,3.2036133-3.659668,5.5795898-4.7880859c2.3759766-1.1269531,5.0996094-1.6918945,8.1723633-1.6918945
			c4.0317383,0.0966797,7.2832031-0.2036133,9.7558594-0.8999023c2.4716797-0.6953125,5.1479492-1.8115234,8.027832-3.3481445
			L228.3833008,18.2324219z M203.5791016,23.3803711c-1.1767578,1.3208008-1.7636719,3.0844727-1.7636719,5.2919922
			c0,2.3037109,0.5996094,4.128418,1.7998047,5.4716797c1.1992188,1.3447266,2.8554688,2.0161133,4.9677734,2.0161133
			c2.2075195,0,3.8881836-0.6591797,5.0400391-1.9799805c1.1523438-1.3198242,1.7280273-3.1791992,1.7280273-5.5800781
			c0-4.7993164-2.3037109-7.199707-6.9116211-7.199707C206.375,21.4003906,204.7548828,22.0605469,203.5791016,23.3803711z"/>
		<path fill="#4141A5" d="M239.2719727,45.5322266C240.4238281,46.6606445,241,48.0410156,241,49.6723633
			c0,1.5839844-0.5761719,2.9521484-1.7280273,4.1040039c-1.1523438,1.1518555-2.5449219,1.7280273-4.1762695,1.7280273
			c-1.5839844,0-2.9404297-0.5761719-4.0678711-1.7280273c-1.128418-1.1518555-1.6918945-2.5200195-1.6918945-4.1040039
			c0-1.6313477,0.5512695-3.0117188,1.6557617-4.1401367c1.1035156-1.1269531,2.4716797-1.6918945,4.1040039-1.6918945
			C236.7270508,43.840332,238.1196289,44.4052734,239.2719727,45.5322266z"/>
	</g>
</svg>
